<svg
  width="77.721695"
  height="107.40376"
  viewBox="0 0 77.721695 107.40376"
  version="1.1"
  id="svg5"
  xmlSpace="preserve"
  xmlns="http://www.w3.org/2000/svg"
 ><defs
       id="defs2" /><g
       id="layer2"
       style="display:inline"
       transform="translate(-22.019764,-10.451305)"><path
         style="display:inline;fill:#ffffff;fill-opacity:1;stroke-width:0.443095"
         d="m 51.49888,117.06731 c -7.885102,-1.44254 -12.031339,-3.1338 -7.185042,-4.21785 6.363765,-1.42348 11.340166,-3.34992 14.886874,-10.2171 2.717522,-5.261688 2.817774,-11.057048 2.292543,-15.440347 C 60.714897,80.696251 58.146602,75.576681 52.095837,70.529403 38.612002,59.281789 37.785047,42.587911 51.634983,31.773094 55.81167,28.5117 56.187578,26.991107 54.125851,26.991107 46.368104,28.524665 46.534086,29.04632 39.73764,34.704003 35.854612,37.936418 30.883805,45.85985 28.157813,49.97938 c -6.977841,14.889871 -8.113984,1.25152 -2.854998,-8.673208 5.137623,-8.801409 9.823876,-14.418943 15.253239,-19.029309 6.166225,-4.836704 6.320508,-4.542233 8.353317,-7.13131 5.718295,-7.2671705 16.613463,-5.8353258 18.944317,2.489668 1.299918,4.64285 0.382414,8.05896 -4.135523,15.397677 -3.975487,6.457591 -2.197398,10.368558 6.844971,15.05574 7.122452,3.691972 11.408605,6.755865 14.721168,10.523198 0.943509,1.07304 2.248438,2.549163 2.899837,3.28027 6.518561,7.316168 11.556395,19.629184 11.557303,28.247325 4.35e-4,4.119346 -0.257026,4.224316 -3.260419,1.329286 -1.276114,-1.230072 -2.039372,-1.736437 -1.836701,-1.218512 1.579347,4.036 0.09502,20.603935 -1.845913,20.603935 -0.579178,0 -0.655439,-0.33808 -0.424795,-1.88316 1.582617,-10.601856 -0.296342,-18.131879 -6.10872,-24.481014 l -2.433816,-2.658571 -0.02034,2.577228 c -0.02012,2.54599 -0.03514,2.575531 -1.238864,2.437024 -0.84333,-0.09703 -1.467163,0.166763 -2.026088,0.85676 -1.199916,1.481312 -2.384761,1.289882 -2.742494,-0.443095 -0.664971,-3.221303 -3.196069,-5.750314 -7.151904,-7.146015 l -1.742827,-0.614901 1.335158,2.906189 c 1.249861,4.77826 0.997751,10.824965 -2.162733,19.991825 -2.431502,6.28441 -1.597869,8.8603 5.803634,9.0243 2.821836,0.50867 7.37594,-1.26638 8.973041,-0.97556 1.927571,0.64252 -3.774583,5.62217 -9.284286,7.04934 -6.079587,0.48833 -16.103613,0.59878 -22.074497,-0.42718 z m 20.04242,-1.15698 c 2.787012,-0.72071 9.14741,-3.45696 9.14741,-3.93522 0,-0.14627 -0.348937,-0.0827 -0.775417,0.14127 -4.44966,2.33684 -16.782243,0.34198 -15.913554,-2.57411 0.111753,-0.37513 0.928843,-3.17447 1.81576,-6.22075 0.886913,-3.04628 1.784548,-6.037177 1.994748,-6.646433 1.061679,-3.077279 1.87346,-8.093752 1.627565,-10.057687 -0.146505,-1.170091 -0.309817,-2.476371 -0.362922,-2.90285 -1.729342,-3.430185 -4.896756,-6.464869 -7.819839,-8.270254 -3.795753,-2.293426 -4.532076,-2.292225 -2.566434,0.004 1.351175,1.57855 3.18013,4.822105 4.348701,7.712207 0.806154,1.993782 1.122662,6.198868 0.712324,9.463979 -0.703236,5.595771 -3.395328,13.150998 -5.507741,15.457218 -0.814187,0.88888 -1.480337,1.76191 -1.480337,1.94007 0,0.61806 -4.719545,2.62877 -7.558674,3.2203 l -2.854065,0.59463 3.12851,0.96332 c 6.017402,1.85285 17.046071,2.40775 22.063965,1.11013 z M 93.776274,91.580342 c -1.07599,-4.639571 -0.443875,-5.031237 2.863096,-1.773994 l 2.023594,1.993171 0.09573,-2.200119 C 99.016363,83.677396 93.207588,69.494585 88.227432,63.886075 87.614821,63.196171 86.141649,61.502732 84.953724,60.12288 81.768817,56.423411 77.027312,52.888126 71.004566,49.72233 59.022706,43.424187 57.974507,39.821193 64.882305,28.678171 72.893738,15.754862 58.875337,4.7120856 49.386434,16.471538 c -2.68339,3.325488 -2.683602,3.30752 0.03106,2.623957 9.095022,-2.290151 11.05863,7.151367 2.864629,13.77387 -10.18253,8.229657 -12.634712,18.696702 -6.737637,28.759308 2.16285,3.69062 7.715962,8.486055 10.669939,9.97851 2.614129,1.390591 4.900573,2.521733 6.972011,3.870876 1.94962,1.278835 4.541727,2.58859 5.760239,2.910565 5.402346,1.427489 9.005256,4.270056 9.758385,7.699011 0.300383,1.367649 1.540545,1.10792 1.540545,-0.322635 0,-0.751206 1.40245,-0.803084 2.126857,-0.07868 0.918129,0.918128 0.636875,-3.019464 -0.354476,-4.962668 -2.087484,-4.091807 -0.506365,-3.477669 3.992692,1.550834 5.205692,5.818302 7.712969,11.541954 8.055149,18.388454 0.05481,1.09667 0.165283,0.16231 0.245492,-2.076353 0.09291,-2.59318 -0.101256,-5.135745 -0.535055,-7.006249 z M 74.263828,76.28576 C 73.045316,75.578779 71.350477,74.674998 70.497518,74.277364 67.949503,73.089519 62.335991,70.164115 59.863231,68.735447 54.9741,65.910697 49.570473,57.617579 49.48566,52.808653 c -0.04629,-2.624462 1.300897,-2.858306 2.154946,-0.374052 1.382262,4.020739 6.098444,9.680723 11.572568,13.888458 4.364205,3.354591 8.367194,6.066808 11.456388,7.762254 2.36826,1.299781 3.360576,2.094246 3.360576,2.690537 0,1.183782 -1.136122,1.035948 -3.76631,-0.49009 z M 30.471569,42.395913 c 6.398734,-9.334941 14.293642,-15.354009 23.41728,-17.853306 l 2.919174,-0.799672 -0.951304,-1.209384 c -2.384216,-3.031042 -5.720342,-3.426372 -9.652684,-1.143846 -7.845681,4.325147 -15.053096,13.176762 -18.794627,20.120018 -4.084537,8.1223 -5.54832,16.426712 -1.562053,8.861906 1.541028,-2.924429 3.621923,-6.513501 4.624214,-7.975716 z"
         id="path606" /><path
         style="fill:#810ca8;fill-opacity:1;stroke-width:0.0635593"
         d="m 76.501025,77.405131 c -0.666946,-0.238477 -1.171243,-0.47965 -2.819083,-1.399817 -0.856462,-0.478256 -2.988086,-1.49933 -4.735967,-2.369492 -4.145159,-2.063618 -8.017075,-4.087997 -9.481042,-4.993442 -2.141585,-1.324542 -4.500614,-3.797487 -6.486509,-6.763524 -1.772663,-2.647566 -2.801279,-5.19316 -3.322073,-7.481028 -0.15889,-0.698009 -0.412457,-2.318938 -0.146265,-2.943079 0.620733,-1.455431 1.341127,-1.153171 2.049485,0.695327 0.916664,2.392082 3.506261,5.562855 5.678866,8.167721 2.438384,2.923523 3.705438,4.148451 7.431579,6.944871 3.852211,2.891034 6.918841,5.028901 10.171919,6.874306 2.058753,1.16789 3.04771,1.946029 3.215378,2.454068 0.09028,0.273552 -0.08126,0.809969 -0.274738,0.945479 -0.456449,0.101778 -0.910055,-0.03751 -1.28155,-0.13139 z"
         id="path717" /><path
         style="fill:#810ca8;fill-opacity:1;stroke-width:0.127119"
         d="m 23.36102,53.391393 c -0.202086,-0.526626 0.862513,-4.662168 2.064303,-7.714712 3.796951,-9.644248 13.045399,-20.773718 21.16366,-24.894894 3.768717,-1.913162 7.029921,-1.23452 9.41865,1.721964 0.397132,0.491522 0.85409,1.190368 0.806915,1.237543 -0.04718,0.04718 -1.365454,0.633213 -2.643278,0.996284 -2.892755,0.821925 -5.417191,1.669068 -7.877535,2.927339 -3.754783,1.920275 -6.196518,3.965579 -9.576618,7.358243 -4.163343,4.178821 -6.398133,7.347045 -10.239495,14.355384 -2.061136,3.76042 -2.870285,4.654742 -3.116602,4.012849 z"
         id="path1504" /><path
         style="fill:#810ca8;fill-opacity:1;stroke-width:0.127119"
         d="m 59.744633,116.59959 c -4.760282,-0.34522 -8.339862,-1.15237 -12.950873,-2.56693 -0.676073,-0.2074 -0.869001,-0.25909 1.360616,-0.73759 2.476658,-0.53153 5.868139,-1.57916 7.457463,-2.54463 0.40606,-0.24666 1.120309,-0.87793 1.120309,-0.96336 1.342892,-1.73128 2.670962,-3.58404 3.439379,-5.27694 1.308878,-2.87883 2.437429,-6.6524 3.121117,-10.24781 0.255487,-1.34356 0.40196,-1.911884 0.398506,-4.766949 -0.0035,-2.861512 -0.03688,-3.393014 -0.285093,-4.533724 -0.563444,-2.589461 -2.542134,-6.51535 -4.826692,-9.51208 -0.564519,-0.740499 -1.185298,-1.58299 -1.185298,-1.658572 0,-0.245523 1.149138,-0.04077 2.590043,0.758642 2.63162,1.460071 4.387454,2.906814 6.266662,4.864682 1.676695,1.787983 3.018566,3.868775 3.235894,5.487612 0.124875,0.936699 0.116412,2.182297 0.118522,2.685601 0.0086,2.054384 -0.608702,5.726988 -1.551288,8.820339 -1.710981,5.615049 -3.753676,12.940099 -3.753676,13.283409 0,1.85747 5.50271,3.58248 10.961725,3.32635 1.990898,-0.0934 3.811298,-0.65486 4.996777,-1.12912 0.465435,-0.18621 0.518495,0.13738 0.556547,0.17543 0.102329,0.10233 -3.320241,1.72699 -5.149497,2.44819 -4.47145,1.76289 -6.205486,2.18837 -11.777395,2.14966 -1.256195,-0.009 -2.88852,-0.0285 -4.143748,-0.0622 z"
         id="path1506" /></g></svg>